# xmcd
#
# Track frame offsets: 
#        150
#        19930
#        35247
#
# Disc length: 736 seconds
#
# Revision: 2
# Processed by: cddbd v1.5.2PL0 Copyright (c) Steve Scherf et al.
# Submitted via: ExactAudioCopy v0.99pb5
#
DISCID=2202de03
DTITLE=Patricia Kaas - Quand J'ai Peur de Tout
DYEAR=1997
DGENRE=Blues
TTITLE0=Quand J'ai Peur de Tout
TTITLE1=Chanson Simple
TTITLE2=Company (Inedit)
EXTD=
EXTT0=
EXTT1=
EXTT2=
PLAYORDER=
